C:\GBW_MyPrograms\KinderuniversiteitApp\Resultaten\Ellis\Kleuter\Kleuter_v4.mot
version=1
nRows=18
nColumns=29
inDegrees=yes
endheader
                time	         pelvis_tilt	           pelvis_tx	           pelvis_ty	       hip_flexion_l	       hip_flexion_r	        knee_angle_l	        knee_angle_r	       ankle_angle_l	       ankle_angle_r	    lumbar_extension	hamstrings_r/activation	bifemsh_r/activation	glut_max_r/activation	iliopsoas_r/activation	rect_fem_r/activation	  vasti_r/activation	gastroc_r/activation	 soleus_r/activation	tib_ant_r/activation	hamstrings_l/activation	bifemsh_l/activation	glut_max_l/activation	iliopsoas_l/activation	rect_fem_l/activation	  vasti_l/activation	gastroc_l/activation	 soleus_l/activation	tib_ant_l/activation	
          0.00000000	         -7.40179418	          0.00000000	          0.90286739	         -3.10340084	         26.50113701	         -1.54135109	         -5.55433627	         14.11060231	          6.12973703	          0.80841177	          0.18110483	          0.05760795	          0.06109107	          0.09150062	          0.05000032	          0.05235047	          0.07002991	          0.05000002	          0.23955022	          0.06182347	          0.32031688	          0.05000001	          0.59711634	          0.05000001	          0.05000000	          0.47450178	          0.43673197	          0.09504130	
          0.01546776	         -7.39558816	          0.01198970	          0.90134673	         -3.35490629	         25.78929842	         -2.67583322	         -5.37251654	         14.65049502	          5.55914751	          1.18583031	          0.16774584	          0.07910240	          0.07495144	          0.07274679	          0.05000002	          0.05000000	          0.07910252	          0.06405563	          0.23715927	          0.07384935	          0.29888418	          0.05000002	          0.55438168	          0.05000001	          0.05000000	          0.48031548	          0.49269763	          0.07556177	
          0.03093552	         -7.38318532	          0.02425412	          0.89989549	         -3.54026834	         25.00904047	         -3.97621770	         -5.35727197	         15.15631792	          4.88323662	          1.58870735	          0.14930685	          0.06288976	          0.13454061	          0.05783672	          0.05000002	          0.05000017	          0.06288979	          0.05092689	          0.30292383	          0.07784619	          0.25879625	          0.05000004	          0.47205447	          0.05000001	          0.05000000	          0.47356357	          0.53780604	          0.06007474	
          0.04640329	         -7.37040885	          0.03641447	          0.89892285	         -3.63456767	         24.26402979	         -5.40419772	         -5.36396011	         15.46561321	          4.10257658	          1.97713066	          0.13614412	          0.05000012	          0.18473602	          0.05000000	          0.05000003	          0.15171472	          0.05000000	          0.05000000	          0.36313780	          0.08134977	          0.22249055	          0.05000002	          0.44828249	          0.05000001	          0.05000000	          0.45015718	          0.56151459	          0.05000000	
          0.06187105	         -7.36183054	          0.04815579	          0.89876801	         -3.61736635	         23.61147448	         -6.92811611	         -5.47055133	         15.46859714	          3.31540277	          2.31859222	          0.11786486	          0.05000004	          0.22213770	          0.05000000	          0.05000006	          0.22167187	          0.05000000	          0.05000000	          0.38319986	          0.07419561	          0.18987100	          0.05000023	          0.43344034	          0.05000001	          0.05000000	          0.41059638	          0.55746667	          0.05000000	
          0.07733881	         -7.35825183	          0.05938686	          0.89948283	         -3.48311833	         23.02057057	         -8.54456681	         -5.63418715	         15.16725698	          2.67179554	          2.60504534	          0.10320608	          0.05000005	          0.22402310	          0.05000000	          0.05000014	          0.25316197	          0.05000000	          0.05000001	          0.37872262	          0.06582440	          0.16060873	          0.05000006	          0.41187412	          0.05000002	          0.05000000	          0.36025266	          0.53052288	          0.05000000	
          0.09280657	         -7.35725411	          0.07017991	          0.90091643	         -3.22938219	         22.43075655	        -10.28235575	         -5.76586451	         14.62088814	          2.22632989	          2.84512235	          0.09318580	          0.05000005	          0.20938296	          0.05000001	          0.05000044	          0.26181663	          0.05000001	          0.05000004	          0.36590065	          0.05863920	          0.12774001	          0.05000003	          0.38267320	          0.05000002	          0.05000000	          0.30548732	          0.48897203	          0.05000000	
          0.10827433	         -7.35556137	          0.08064793	          0.90281496	         -2.85380645	         21.79068300	        -12.17471849	         -5.79167266	         13.90361339	          1.97423690	          3.05092330	          0.08715970	          0.05000005	          0.19606942	          0.05000001	          0.06232151	          0.25798937	          0.05000001	          0.05007178	          0.35508976	          0.05330002	          0.10155885	          0.05000004	          0.34986497	          0.05000003	          0.05000000	          0.25218978	          0.44061046	          0.05000000	
          0.12374209	         -7.35053347	          0.09087485	          0.90491137	         -2.35291077	         21.07140731	        -14.25024704	         -5.66940937	         13.07704588	          1.87549592	          3.23092846	          0.08422321	          0.05000004	          0.18612056	          0.05000000	          0.08172707	          0.24713372	          0.05000001	          0.05000199	          0.34728181	          0.05000093	          0.08074367	          0.05000006	          0.31733042	          0.05000003	          0.05000000	          0.20070630	          0.39062764	          0.05000000	
          0.13920986	         -7.34046685	          0.10090260	          0.90697992	         -1.72128485	         20.26717495	        -16.53177846	         -5.39132924	         12.17655087	          1.87987628	          3.38897099	          0.08320442	          0.05000004	          0.17818320	          0.05000000	          0.10181945	          0.23276052	          0.05000000	          0.05000005	          0.34297454	          0.05000011	          0.06419480	          0.05000006	          0.28848931	          0.05000004	          0.05000000	          0.15956984	          0.34153173	          0.05000000	
          0.15467762	         -7.32455422	          0.11073827	          0.90885176	         -0.95205871	         19.39038398	        -19.03456296	         -4.97763825	         11.20639670	          1.94477376	          3.52531036	          0.08371546	          0.05000003	          0.17283244	          0.05000000	          0.11796051	          0.21773205	          0.05000000	          0.05000002	          0.34175449	          0.05000007	          0.05103754	          0.05000005	          0.26435694	          0.05000004	          0.05000000	          0.12686465	          0.29044028	          0.05000000	
          0.17014538	         -7.30277823	          0.12036437	          0.91041471	         -0.03844674	         18.46371985	        -21.76545404	         -4.46442933	         10.15408411	          2.04295408	          3.63794393	          0.08555182	          0.05000003	          0.16912099	          0.05000000	          0.12629057	          0.20444139	          0.05000000	          0.05000001	          0.34366427	          0.05000006	          0.05000052	          0.05000003	          0.24611214	          0.05000005	          0.05000000	          0.10086266	          0.23091207	          0.05000000	
          0.18561314	         -7.27584521	          0.12974553	          0.91160758	          1.02378661	         17.51460238	        -24.71988165	         -3.89452736	          8.99614941	          2.16148912	          3.72344039	          0.08879802	          0.05000003	          0.16340767	          0.05000000	          0.12466214	          0.19332443	          0.05000000	          0.05000001	          0.34771873	          0.05000012	          0.06815112	          0.05000001	          0.23455383	          0.05000003	          0.05000000	          0.08019000	          0.18358467	          0.05000000	
          0.20108090	         -7.24511640	          0.13883541	          0.91241433	          2.22990784	         16.57278124	        -27.87613865	         -3.31383115	          7.77469230	          2.29797374	          3.77773705	          0.08982466	          0.05000003	          0.15777687	          0.05000000	          0.09949522	          0.18439623	          0.05000000	          0.05000000	          0.35242940	          0.05000003	          0.07633791	          0.05000000	          0.23373983	          0.05000006	          0.05000000	          0.06375438	          0.14595743	          0.15110901	
          0.21654867	         -7.21266260	          0.14758273	          0.91283512	          3.54441291	         15.66997991	        -31.17315884	         -2.77061658	          6.73458493	          2.45350318	          3.79684278	          0.09691687	          0.05000004	          0.16303427	          0.05000000	          0.07910285	          0.16965885	          0.05000000	          0.05000000	          0.35820279	          0.05000003	          0.09983911	          0.05000000	          0.23445401	          0.10518263	          0.05000000	          0.05068738	          0.11604221	          0.27454947	
          0.23201643	         -7.18106758	          0.15596120	          0.91294018	          4.88598158	         14.83015577	        -34.39408173	         -2.30236759	          6.21366942	          2.64103142	          3.78071863	          0.10420639	          0.05000005	          0.16690283	          0.05000000	          0.06289006	          0.14687496	          0.05000000	          0.05000000	          0.35687171	          0.05000002	          0.12359007	          0.05000000	          0.23915738	          0.16358771	          0.05000000	          0.05503732	          0.09225837	          0.28367201	
          0.24748419	         -7.15211092	          0.16396914	          0.91291412	          6.18820982	         14.06623172	        -37.26360574	         -1.93361040	          6.29512240	          2.89943903	          3.73182170	          0.10983417	          0.05000007	          0.17026111	          0.05000000	          0.05000024	          0.12619564	          0.05000000	          0.05000000	          0.34102398	          0.05000003	          0.16112470	          0.05000000	          0.24655078	          0.21089484	          0.05000000	          0.06866009	          0.07334924	          0.28271241	
          0.26295195	         -7.12676603	          0.17161410	          0.91295302	          7.44258397	         13.37489328	        -39.66725101	         -1.65962439	          6.71380373	          3.25004861	          3.65267909	          0.11425280	          0.05000010	          0.17486877	          0.05000001	          0.05000004	          0.10033101	          0.05000000	          0.05000000	          0.31993416	          0.05000006	          0.20907431	          0.05000000	          0.25542900	          0.24631762	          0.05000000	          0.07175631	          0.05831569	          0.26879620	
